# xmcd CD database file generated by Grip 3.3.1
# 
# Track frame offsets:
#       150
#       12112
#       23390
#       36388
#       51337
#       64402
#       77000
#       87880
#       101527
#       113095
#       125301
#       140731
# 
# Disc length: 2052 seconds
# 
# Revision: 2
# Processed by: cddbd v1.5.2PL0 Copyright (c) Steve Scherf et al.
# Submitted via: Grip 3.3.1
# 
DISCID=9708020c
DTITLE=Sonny Boy Williamson - DOWN AND OUT BLUES
DYEAR=1900
DGENRE=Blues
TTITLE0=Don't Start Me To Talkin'
TTITLE1=I Don't Know
TTITLE2=All My Love In Vain
TTITLE3=The Key
TTITLE4=Keep It To Yourself
TTITLE5=Dissatisfied
TTITLE6=Fattening Frogs For Snakes
TTITLE7=Wake Up Babe
TTITLE8=Your Funeral And My Trial
TTITLE9="99"
TTITLE10=Cross My Heart
TTITLE11=Let Me Explain
EXTD=
EXTT0=
EXTT1=
EXTT2=
EXTT3=
EXTT4=
EXTT5=
EXTT6=
EXTT7=
EXTT8=
EXTT9=
EXTT10=
EXTT11=
PLAYORDER=
